<?xml version="1.0" encoding="utf-8"?>

<!-- Generator: Adobe Illustrator 16.0.0, SVG Export Plug-In . SVG Version: 6.00 Build 0)  -->

<!DOCTYPE svg PUBLIC "-//W3C//DTD SVG 1.1//EN" "http://www.w3.org/Graphics/SVG/1.1/DTD/svg11.dtd" [

	<!ENTITY ns_extend "http://ns.adobe.com/Extensibility/1.0/">

	<!ENTITY ns_ai "http://ns.adobe.com/AdobeIllustrator/10.0/">

	<!ENTITY ns_graphs "http://ns.adobe.com/Graphs/1.0/">

	<!ENTITY ns_vars "http://ns.adobe.com/Variables/1.0/">

	<!ENTITY ns_imrep "http://ns.adobe.com/ImageReplacement/1.0/">

	<!ENTITY ns_sfw "http://ns.adobe.com/SaveForWeb/1.0/">

	<!ENTITY ns_custom "http://ns.adobe.com/GenericCustomNamespace/1.0/">

	<!ENTITY ns_adobe_xpath "http://ns.adobe.com/XPath/1.0/">

]>

<svg version="1.1" id="Layer_1" xmlns:x="&ns_extend;" xmlns:i="&ns_ai;" xmlns:graph="&ns_graphs;"

	 xmlns="http://www.w3.org/2000/svg" xmlns:xlink="http://www.w3.org/1999/xlink" x="0px" y="0px" width="496.596px"

	 height="142.979px" viewBox="0 0 496.596 142.979" enable-background="new 0 0 496.596 142.979" xml:space="preserve">

<metadata>

	<sfw  xmlns="http://ns.adobe.com/SaveForWeb/1.0/">

		<slices></slices>

		<sliceSourceBounds  bottomLeftOrigin="true" height="140.332" width="492.222" y="-309.785" x="73.66"></sliceSourceBounds>

	</sfw>

</metadata>

<g id="Layer_1_1_">

</g>

<g id="Isolation_Mode">

	<g>

		<g>

			<path fill="#2A2423" d="M53.078,56.202h9.445c-0.192-4.196-1.047-7.848-2.544-10.942c-1.497-3.104-3.548-5.705-6.146-7.797

				c-2.503-2.104-5.451-3.65-8.85-4.652c-3.291-1.001-6.892-1.494-10.791-1.494c-3.4,0-6.849,0.392-10.347,1.19

				c-3.4,0.806-6.499,2.052-9.294,3.756c-2.801,1.695-5.101,3.945-6.898,6.747c-1.698,2.795-2.547,6.142-2.547,10.043

				c0,3.3,0.548,6.105,1.648,8.398c1.101,2.196,2.597,4.094,4.497,5.692c1.999,1.5,4.298,2.801,6.896,3.893

				c2.597,1.007,5.451,1.905,8.547,2.712l12.145,2.691c2.098,0.499,4.149,1.104,6.145,1.798c2.107,0.7,3.951,1.605,5.547,2.696

				c1.602,1.007,2.851,2.306,3.753,3.904c0.998,1.497,1.497,3.398,1.497,5.696c0,2.691-0.698,4.987-2.099,6.895

				c-1.298,1.801-2.996,3.301-5.097,4.503c-2.101,1.196-4.397,2.049-6.892,2.547c-2.402,0.5-4.754,0.747-7.053,0.747

				c-6.297,0-11.596-1.596-15.888-4.797c-4.199-3.304-6.499-8.146-6.902-14.543H2.404c0.802,9.498,3.997,16.394,9.594,20.694

				c5.702,4.292,13.096,6.444,22.195,6.444c3.601,0,7.245-0.401,10.945-1.205c3.694-0.8,6.994-2.098,9.892-3.896

				c3-1.896,5.448-4.295,7.351-7.195c1.896-3.003,2.845-6.602,2.845-10.797c0-3.394-0.647-6.347-1.946-8.848

				c-1.301-2.495-3-4.597-5.101-6.3c-1.996-1.692-4.345-3.043-7.047-4.035c-2.597-1.106-5.243-1.856-7.946-2.256l-12.594-2.849

				c-1.596-0.396-3.347-0.904-5.25-1.503c-1.893-0.7-3.644-1.542-5.243-2.541c-1.599-1.007-2.95-2.207-4.047-3.604

				c-1.004-1.497-1.5-3.305-1.5-5.398c0-2.501,0.551-4.596,1.648-6.3c1.097-1.692,2.551-3.046,4.345-4.041

				c1.797-1.106,3.749-1.847,5.851-2.246c2.2-0.506,4.348-0.754,6.446-0.754c2.699,0,5.25,0.347,7.642,1.048

				c2.405,0.598,4.5,1.603,6.303,2.994c1.903,1.403,3.396,3.204,4.5,5.401C52.383,50.807,52.984,53.301,53.078,56.202z"/>

			<path fill="#2A2423" d="M79.022,3.873v15.145h9.439V3.873H79.022z M79.022,33.564v77.358h9.439V33.564H79.022z"/>

			<path fill="#2A2423" d="M171.975,104.632V33.564h-9.443v13.342h-0.304c-0.898-2.102-2.2-4.104-3.895-6

				c-1.603-1.899-3.449-3.543-5.55-4.949c-2.101-1.494-4.444-2.645-7.047-3.449c-2.501-0.799-5.194-1.19-8.095-1.19

				c-5.596,0-10.598,1.048-14.992,3.146c-4.298,1.99-7.946,4.797-10.946,8.395c-2.9,3.499-5.147,7.643-6.746,12.439

				c-1.503,4.708-2.247,9.7-2.247,14.996c0,5.5,0.647,10.701,1.946,15.594c1.302,4.797,3.347,8.996,6.148,12.6

				c2.898,3.599,6.545,6.442,10.946,8.548c4.394,1.988,9.694,2.997,15.891,2.997c5.696,0,10.645-1.454,14.844-4.354

				c4.298-2.895,7.543-6.743,9.743-11.547h0.304v10.503c0,9.387-1.949,16.586-5.851,21.587c-3.898,4.992-10.245,7.5-19.04,7.5

				c-2.597,0-5.144-0.307-7.648-0.902c-2.498-0.505-4.797-1.351-6.895-2.551c-1.999-1.199-3.75-2.801-5.247-4.8

				c-1.401-1.899-2.349-4.296-2.851-7.199h-9.445c0.297,4.102,1.4,7.601,3.297,10.496c2.005,2.997,4.45,5.445,7.351,7.352

				c3,1.896,6.343,3.298,10.046,4.199c3.694,0.898,7.493,1.345,11.392,1.345c6.297,0,11.596-0.844,15.892-2.548

				c4.397-1.697,7.945-4.151,10.645-7.351c2.7-3.198,4.652-7.097,5.848-11.692C171.324,115.469,171.975,110.323,171.975,104.632z

				 M137.641,102.084c-4.4,0-8.193-0.854-11.392-2.554c-3.201-1.804-5.851-4.104-7.952-6.897c-2.094-2.901-3.644-6.201-4.648-9.892

				c-0.998-3.704-1.497-7.5-1.497-11.401c0-3.994,0.449-7.896,1.348-11.695c1.001-3.892,2.551-7.338,4.655-10.338

				c2.095-3.006,4.741-5.4,7.938-7.202c3.201-1.896,7.047-2.845,11.546-2.845c4.497,0,8.293,0.949,11.392,2.845

				c3.201,1.909,5.795,4.4,7.797,7.493c2.002,3.105,3.453,6.562,4.351,10.352c0.898,3.793,1.351,7.595,1.351,11.392

				c0,3.901-0.551,7.697-1.648,11.401c-1.004,3.689-2.55,6.989-4.648,9.892c-2.102,2.795-4.702,5.095-7.797,6.897

				C145.339,101.23,141.738,102.084,137.641,102.084z"/>

			<path fill="#2A2423" d="M189.967,33.564v77.358h9.442V67.748c0-4.101,0.453-7.85,1.351-11.245

				c0.899-3.499,2.25-6.496,4.047-8.994c1.903-2.603,4.298-4.599,7.202-6.002c2.993-1.493,6.495-2.247,10.493-2.247

				c3,0,5.55,0.502,7.646,1.503c2.098,0.998,3.746,2.389,4.952,4.196c1.299,1.694,2.197,3.744,2.696,6.146

				c0.595,2.296,0.899,4.748,0.899,7.348v52.471h9.446V67.145c0-3.595,0.297-7.044,0.898-10.348c0.701-3.396,1.856-6.394,3.446-8.99

				c1.603-2.6,3.752-4.655,6.449-6.145c2.698-1.605,6.096-2.402,10.194-2.402c6.796,0,11.547,1.696,14.242,5.098

				c2.703,3.298,4.048,8.147,4.048,14.543v52.021h9.451v-52.47c0-18.092-8.553-27.135-25.645-27.135

				c-5.095,0-9.892,1.243-14.391,3.741c-4.497,2.503-7.9,6.303-10.193,11.397c-1.4-5.095-4.202-8.895-8.398-11.397

				c-4.1-2.498-8.696-3.741-13.793-3.741c-6.3,0-11.494,1.346-15.598,4.042c-3.998,2.699-7.239,6.449-9.743,11.246h-0.446V33.564

				H189.967z"/>

			<path fill="#2A2423" d="M313.956,57.249h9.447c0.199-6.297,2.195-10.847,5.994-13.642c3.806-2.899,8.701-4.348,14.694-4.348

				c2.808,0,5.396,0.248,7.794,0.754c2.506,0.399,4.654,1.189,6.451,2.396c1.896,1.198,3.354,2.851,4.346,4.944

				c1.106,2.002,1.655,4.604,1.655,7.794c0,2.102-0.312,3.8-0.903,5.096c-0.498,1.305-1.248,2.357-2.248,3.154

				c-1.004,0.697-2.25,1.199-3.748,1.493c-1.5,0.304-3.254,0.559-5.246,0.756c-5.098,0.599-10.146,1.255-15.145,1.946

				c-4.896,0.601-9.346,1.695-13.347,3.294c-3.898,1.604-7.048,3.949-9.439,7.053c-2.405,2.994-3.604,7.196-3.604,12.596

				c0,3.896,0.651,7.294,1.948,10.194c1.4,2.798,3.25,5.15,5.55,7.047c2.401,1.801,5.151,3.097,8.241,3.89

				c3.203,0.908,6.604,1.359,10.201,1.359c3.793,0,7.049-0.355,9.739-1.054c2.812-0.704,5.253-1.704,7.354-2.996

				c2.197-1.298,4.144-2.892,5.842-4.801c1.801-1.995,3.551-4.245,5.246-6.746h0.304c0,1.998,0.099,3.854,0.304,5.547

				c0.292,1.604,0.85,3,1.644,4.199c0.802,1.202,1.898,2.151,3.3,2.854c1.504,0.596,3.453,0.893,5.848,0.893

				c1.305,0,2.355-0.049,3.148-0.151c0.896-0.1,1.9-0.244,3.004-0.449v-7.937c-0.902,0.396-1.898,0.592-3.004,0.592

				c-3.696,0-5.543-1.894-5.543-5.694v-41.08c0-5.201-0.856-9.394-2.551-12.595c-1.705-3.3-3.898-5.851-6.599-7.65

				c-2.698-1.794-5.748-2.997-9.145-3.592c-3.403-0.701-6.8-1.048-10.196-1.048c-4.502,0-8.604,0.493-12.293,1.494

				c-3.7,1.001-6.951,2.548-9.746,4.652c-2.695,2.092-4.845,4.797-6.449,8.091C315.208,48.854,314.262,52.753,313.956,57.249z

				 M364.338,68.645v12.291c0,3.799-0.754,7.201-2.253,10.198c-1.396,2.996-3.35,5.547-5.842,7.647

				c-2.402,2.099-5.253,3.699-8.551,4.798c-3.301,1.104-6.75,1.647-10.352,1.647c-2.189,0-4.341-0.347-6.439-1.051

				c-2.101-0.7-3.946-1.695-5.545-2.997c-1.604-1.4-2.901-2.999-3.899-4.797c-0.897-1.896-1.353-4.05-1.353-6.448

				c0-3.796,1.102-6.693,3.299-8.696c2.293-2.097,5.195-3.692,8.695-4.797c3.496-1.1,7.349-1.896,11.549-2.397

				c4.289-0.602,8.438-1.249,12.439-1.946c1.305-0.204,2.799-0.557,4.5-1.06c1.695-0.49,2.848-1.295,3.439-2.393H364.338z"/>

			<path fill="#CF0A2C" d="M452.344,71.34l-10.944,11.701l10.047,9.143c-0.8,0.803-2.151,1.248-4.055,1.349

				c-1.896,0.1-3.693,0.153-5.393,0.153c-5.298,0-9.792-1.003-13.493-3.002c-3.699-2.102-6.701-4.847-8.998-8.25

				c-2.3-3.396-3.992-7.191-5.095-11.396c-1.001-4.292-1.5-8.688-1.5-13.189c0-4.695,0.499-9.244,1.5-13.638

				c1.103-4.401,2.795-8.302,5.095-11.702c2.297-3.495,5.299-6.238,8.998-8.24c3.701-2.101,8.195-3.155,13.493-3.155

				c5.297,0,9.796,1.055,13.489,3.155c3.704,2.001,6.701,4.745,8.994,8.24c2.309,3.4,3.955,7.301,4.948,11.702

				c1.105,4.394,1.654,8.942,1.654,13.638c0,5.702-0.595,10.545-1.797,14.546c-1.209,3.998-2.802,7.349-4.808,10.04L452.344,71.34z

				 M483.083,120.823l10.938-11.396l-13.341-12.145c4.5-5.099,7.945-10.992,10.345-17.695c2.397-6.694,3.602-13.939,3.602-21.739

				c0-7.992-1.203-15.393-3.602-22.188c-2.398-6.896-5.845-12.893-10.345-17.993c-4.499-5.098-9.993-9.092-16.496-11.996

				c-6.49-2.89-13.889-4.344-22.185-4.344c-8.196,0-15.597,1.454-22.188,4.344c-6.5,2.904-11.997,6.898-16.495,11.996

				c-4.494,5.101-7.949,11.098-10.34,17.993c-2.403,6.796-3.601,14.195-3.601,22.188c0,7.8,1.196,15.095,3.601,21.895

				c2.391,6.689,5.846,12.542,10.34,17.54c4.498,4.999,9.995,8.945,16.495,11.847c6.591,2.796,13.99,4.188,22.188,4.188

				c10.196,0,18.842-2.049,25.938-6.142L483.083,120.823z"/>

		</g>

	</g>

</g>

</svg>
